<svg width="6673" height="1623" viewBox="0 0 6673 1623" fill="none" xmlns="http://www.w3.org/2000/svg">
<ellipse cx="2290.6" cy="1456.47" rx="166.528" ry="166.474" fill="#00BECC"/>
<ellipse cx="1848.8" cy="1456.47" rx="166.528" ry="166.474" fill="#047FAB"/>
<ellipse cx="1406.99" cy="1456.47" rx="166.528" ry="166.474" fill="#39446C"/>
<path fill-rule="evenodd" clip-rule="evenodd" d="M4863.29 1454.46V1566.57H4873.48H4883.68V1454.46V1342.34H4873.48H4863.29V1454.46ZM5161.67 1350.98C5158.31 1358.36 5158.77 1360.66 5164.83 1366.72C5178.53 1380.41 5198.69 1366.22 5189.61 1349.27C5184.01 1338.81 5166.74 1339.87 5161.67 1350.98ZM6236.29 1454.46V1566.57H6246.49C6256.19 1566.57 6256.69 1565.88 6256.82 1552.13L6256.95 1537.7L6261.86 1546.73C6269.89 1561.5 6287.09 1569.97 6309.08 1569.97C6331.62 1569.97 6343.41 1564.7 6357.99 1548.11C6384.68 1517.71 6385.64 1451.17 6359.83 1420.5C6333.77 1389.54 6283.27 1388.65 6263.44 1418.79L6256.73 1428.98L6256.7 1385.66L6256.68 1342.34H6246.49H6236.29V1454.46ZM5006.02 1378.02V1396.7H4992.43C4979.59 1396.7 4978.84 1397.27 4978.84 1406.89C4978.84 1416.52 4979.59 1417.09 4992.43 1417.09H5006.02V1480.88C5006.02 1550.63 5007.05 1554.87 5026.45 1564.9C5037.42 1570.56 5062.31 1571.73 5065.4 1566.73C5066.5 1564.95 5066.45 1559.66 5065.27 1554.99C5063.46 1547.76 5061.7 1546.78 5053.5 1548.42C5046.09 1549.9 5041.84 1548.33 5035.14 1541.63C5026.46 1532.95 5026.42 1532.64 5026.42 1475V1417.09H5045.33C5063.97 1417.09 5064.23 1416.95 5063.17 1407.74C5062.17 1399.03 5060.9 1398.33 5044.26 1397.37L5026.42 1396.35V1377.84C5026.42 1359.54 5026.3 1359.33 5016.22 1359.33C5006.13 1359.33 5006.02 1359.52 5006.02 1378.02ZM5927.02 1378.02V1396.7H5915.13C5904.18 1396.7 5903.23 1397.51 5903.23 1406.89C5903.23 1416.28 5904.18 1417.09 5915.13 1417.09H5927.02V1474.95C5927.02 1540.35 5929.79 1551.95 5948.06 1563.09C5959.11 1569.82 5986.14 1572.65 5989.38 1567.4C5990.26 1565.99 5990.17 1560.66 5989.19 1555.55C5987.72 1547.85 5986.08 1546.59 5979.63 1548.21C5971.73 1550.19 5957.97 1544.85 5953.41 1538.04C5952.04 1535.98 5950.9 1507.92 5950.86 1475.69L5950.81 1417.09H5967.81C5984.42 1417.09 5984.8 1416.86 5984.8 1406.89C5984.8 1396.93 5984.42 1396.7 5967.81 1396.7H5950.81V1378.02V1359.33H5938.92H5927.02V1378.02ZM2640.65 1401.76C2640.65 1404.78 2651.36 1442.47 2664.44 1485.51C2677.53 1528.56 2688.23 1564.5 2688.23 1565.38C2688.23 1566.26 2693.79 1566.51 2700.58 1565.93L2712.93 1564.87L2730.67 1503.52C2740.42 1469.78 2749.09 1440.1 2749.94 1437.58C2750.77 1435.06 2756.46 1450.44 2762.56 1471.75C2790.75 1570.26 2789.21 1566.57 2802.14 1566.57C2813.54 1566.57 2813.79 1566.25 2821.01 1541.94C2825.03 1528.4 2836.33 1490.95 2846.11 1458.74C2855.89 1426.53 2863.11 1399.39 2862.16 1398.43C2861.2 1397.48 2856.16 1396.7 2850.94 1396.7C2840.38 1396.7 2841.78 1393.16 2814.14 1489.77L2801.61 1533.58L2785.22 1476.18C2776.2 1444.62 2767.44 1413.82 2765.75 1407.74C2763.08 1398.13 2761.23 1396.7 2751.43 1396.7H2740.18L2722.17 1460.4C2712.27 1495.44 2703.18 1525.25 2701.98 1526.65C2700.78 1528.05 2691.3 1499.76 2680.91 1463.79L2662.02 1398.4L2651.34 1397.34C2643.33 1396.54 2640.65 1397.65 2640.65 1401.76ZM2947.69 1404.35C2948.77 1408.55 2960.04 1446.75 2972.73 1489.24L2995.8 1566.49L3007.87 1566.53L3019.93 1566.57L3038.37 1502.02C3048.51 1466.52 3057.61 1437.48 3058.59 1437.49C3059.57 1437.5 3068.68 1466.63 3078.84 1502.21L3097.3 1566.91L3109.3 1565.89L3121.29 1564.87L3146.04 1483.34C3159.65 1438.49 3170.79 1400.65 3170.81 1399.25C3170.82 1397.85 3165.75 1396.7 3159.54 1396.7H3148.27L3130.1 1460.4C3120.1 1495.44 3110.95 1525.26 3109.75 1526.67C3108.55 1528.08 3099.21 1499.8 3088.98 1463.82L3070.39 1398.4H3058.67H3046.95L3028.36 1463.82C3018.14 1499.8 3008.77 1528.08 3007.55 1526.67C3006.33 1525.26 2997.12 1495.44 2987.09 1460.4L2968.85 1396.7H2957.29C2946.98 1396.7 2945.94 1397.53 2947.69 1404.35ZM3253.28 1400.95C3254.17 1403.29 3261.32 1426.6 3269.16 1452.76C3277 1478.92 3287.97 1515.23 3293.54 1533.45L3303.66 1566.57H3315.26C3328.35 1566.57 3323.68 1577.66 3353.04 1476.78C3360.08 1452.61 3366.29 1434.27 3366.85 1436.01C3367.41 1437.75 3376.03 1467.45 3386 1502.02L3404.13 1564.87L3416.05 1565.89L3427.96 1566.92L3452.39 1486.05C3465.82 1441.58 3476.78 1403.19 3476.75 1400.73C3476.71 1397.77 3473.06 1396.63 3465.85 1397.34L3455.02 1398.4L3436.26 1463.78C3425.95 1499.73 3416.53 1528.02 3415.34 1526.63C3414.15 1525.24 3405.08 1495.44 3395.17 1460.4L3377.16 1396.7H3365.91C3356.12 1396.7 3354.26 1398.13 3351.59 1407.74C3349.9 1413.82 3341.15 1444.57 3332.15 1476.08L3315.79 1533.38L3301.54 1484.58C3293.71 1457.73 3284.75 1426.98 3281.64 1416.24C3276.12 1397.15 3275.71 1396.7 3263.82 1396.7C3255.49 1396.7 3252.17 1398.04 3253.28 1400.95ZM3729.48 1403.2C3702.34 1415.52 3687.79 1444.01 3687.55 1485.28C3687.42 1506.82 3688.92 1513.96 3696.74 1529.27C3710.6 1556.37 3726.61 1567.63 3753.71 1569.36C3765.74 1570.12 3779.42 1569.79 3784.11 1568.61C3801.41 1564.27 3826.74 1534.87 3826.74 1519.12C3826.74 1517.19 3821.38 1515.61 3814.84 1515.61C3806.2 1515.61 3802.95 1517.1 3802.95 1521.05C3802.95 1524.04 3797.75 1531.68 3791.39 1538.04C3781.42 1548 3777.58 1549.58 3763.35 1549.57C3729.4 1549.55 3709.99 1525.5 3709.79 1483.22C3709.7 1463.3 3711.19 1456.74 3718.81 1443.75C3738.61 1409.98 3785.6 1408.13 3799.96 1440.56C3803.78 1449.2 3806.57 1451.06 3815.67 1451.06C3827.76 1451.06 3828.52 1449.42 3823.11 1435.14C3810.88 1402.86 3764.84 1387.15 3729.48 1403.2ZM3959.76 1404.04C3930.93 1418.3 3916.43 1450 3919.2 1492.69C3922.46 1542.87 3948.75 1569.97 3994.16 1569.97C4024.18 1569.97 4042.99 1558.05 4056.57 1530.39C4064.72 1513.79 4066.32 1506.31 4066.26 1485.04C4066.17 1454.75 4060.9 1437.8 4046.46 1421.36C4025.09 1397.03 3988.64 1389.74 3959.76 1404.04ZM4168.86 1398.97C4167.61 1400.21 4166.59 1438.43 4166.59 1483.9V1566.57H4178.48H4190.38L4190.39 1507.97C4190.4 1455.83 4191.14 1448.16 4197.04 1438.49C4214.38 1410.05 4256.25 1410.17 4269.79 1438.68C4274.25 1448.1 4275.34 1461.75 4275.34 1508.48V1566.57H4285.54H4295.73V1501.12C4295.73 1443.91 4294.94 1434.18 4289.43 1423.83C4273.58 1394.05 4223.66 1387.1 4198.03 1411.11L4190.38 1418.27V1407.49C4190.38 1397.91 4189.3 1396.7 4180.75 1396.7C4175.45 1396.7 4170.1 1397.72 4168.86 1398.97ZM4433.37 1401.5C4415.67 1409.36 4406.91 1421.9 4405.28 1441.69C4402.91 1470.68 4415.53 1482.37 4461.07 1493.34C4487.75 1499.76 4499.64 1508.16 4499.64 1520.56C4499.64 1540.13 4486.5 1549.59 4459.29 1549.59C4446.07 1549.59 4440.12 1547.67 4431.94 1540.79C4426.19 1535.95 4421.48 1529.84 4421.48 1527.2C4421.48 1521.86 4408.89 1520.8 4401.43 1525.52C4393.81 1530.34 4407.49 1553.14 4423.48 1562.27C4441.02 1572.28 4478.73 1573.01 4496.3 1563.68C4522.92 1549.54 4532.03 1516.16 4514.84 1495.73C4506.15 1485.4 4493.3 1479.54 4458.24 1469.9C4427.39 1461.42 4418.12 1443.69 4435.23 1425.88C4439.4 1421.53 4447.74 1418.86 4460.41 1417.81C4478.67 1416.3 4479.77 1416.69 4491.19 1428.79C4503.65 1442 4517.28 1444.37 4519.31 1433.68C4520.78 1425.96 4503.81 1406.87 4490.57 1401.34C4476.56 1395.49 4446.71 1395.57 4433.37 1401.5ZM4625.46 1462.1C4625.53 1519.03 4626.38 1529.35 4632.01 1541.74C4646.43 1573.5 4694.02 1579.94 4721.4 1553.83L4730.74 1544.92V1555.75C4730.74 1565.51 4731.74 1566.57 4740.94 1566.57H4751.14V1481.64V1396.7H4741.15H4731.17L4730.11 1459.34L4729.04 1521.98L4718.99 1532.46C4704.05 1548.03 4687.18 1552.1 4670.75 1544.08C4648.65 1533.29 4645.79 1523.14 4645.79 1455.31L4645.78 1396.7H4635.59H4625.39L4625.46 1462.1ZM5165.76 1481.64V1566.57H5175.95H5186.15V1481.64V1396.7H5175.95H5165.76V1481.64ZM5441.04 1481.64V1566.57H5451.23H5461.43V1510.41C5461.43 1446.84 5464.3 1435.04 5482.46 1423.97C5495.85 1415.81 5512.4 1415.15 5526.11 1422.24C5544.12 1431.55 5546.39 1441.02 5546.39 1506.95V1566.57H5558.6H5570.8L5569.64 1501.17C5568.61 1443.15 5567.71 1434.47 5561.68 1424.24C5552.13 1408.02 5539.48 1399.63 5521.5 1397.61C5499.15 1395.09 5483.77 1398.95 5471.87 1410.06L5461.43 1419.81V1408.26C5461.43 1397.68 5460.56 1396.7 5451.23 1396.7H5441.04V1481.64ZM5711.38 1404.23C5671.42 1427.42 5657.64 1484.22 5680.58 1531.11C5693.34 1557.16 5710.5 1567.85 5742.18 1569.44C5772.15 1570.96 5793.57 1562.46 5804.55 1544.7C5813.35 1530.46 5813.37 1530.53 5801.5 1526.39C5792.72 1523.33 5790.89 1523.9 5786.18 1531.08C5777.46 1544.39 5761.84 1550.54 5741.14 1548.82C5726.12 1547.58 5720.81 1545.29 5711.08 1535.86C5700.61 1525.72 5692.6 1508.52 5692.55 1496.08C5692.53 1492.84 5707.02 1491.83 5753.7 1491.83H5814.87V1472.11C5814.87 1445.9 5802.28 1420.09 5783.4 1407.6C5763.93 1394.72 5730.46 1393.16 5711.38 1404.23ZM6480.98 1481.64V1566.57H6491.18H6501.37L6501.38 1509.67C6501.38 1462.3 6502.38 1450.77 6507.33 1440.87C6514.1 1427.32 6531.63 1417.1 6548.1 1417.09C6558.11 1417.09 6559.15 1416.13 6559.15 1406.89C6559.15 1397.24 6558.42 1396.7 6545.33 1396.7C6530.33 1396.7 6520.9 1400.5 6509.02 1411.31L6501.37 1418.27V1407.49C6501.37 1397.77 6500.37 1396.7 6491.18 1396.7H6480.98V1481.64ZM4017.4 1424.76C4051.77 1447.59 4053.61 1512.68 4020.68 1540.38C4006.99 1551.89 3983.61 1553 3967.06 1542.91C3941.21 1527.15 3932.32 1478.82 3949.23 1445.99C3963.48 1418.32 3993.6 1408.95 4017.4 1424.76ZM5775.72 1430.61C5782.01 1436.7 5788.11 1445.71 5789.28 1450.62C5790.45 1455.54 5792.2 1462.23 5793.17 1465.5C5794.8 1470.98 5790.89 1471.45 5743.31 1471.45H5691.68L5693.84 1460.4C5696.57 1446.47 5705.22 1434.59 5720.03 1424.43C5736.88 1412.86 5760.06 1415.44 5775.72 1430.61ZM6330.8 1423.96C6346.77 1433.7 6355.09 1454.03 6355.09 1483.34C6355.09 1524.85 6336.96 1549.55 6306.48 1549.57C6289.15 1549.59 6276.05 1541.36 6266.41 1524.41C6259.94 1513.02 6258.53 1505.62 6258.59 1483.34C6258.64 1464.93 6260.44 1452.87 6264.15 1445.96C6270.11 1434.89 6282.56 1422.45 6290.67 1419.49C6301.8 1415.42 6320.13 1417.46 6330.8 1423.96ZM3555.54 1540.07C3545.92 1549.68 3554.69 1569.97 3568.45 1569.97C3582.21 1569.97 3590.97 1549.68 3581.36 1540.07C3576.11 1534.82 3560.79 1534.82 3555.54 1540.07ZM5299.68 1544.49C5294.53 1552.36 5294.53 1553.61 5299.68 1561.48C5309.54 1576.52 5328.88 1570.9 5328.88 1552.98C5328.88 1535.07 5309.54 1529.45 5299.68 1544.49ZM6092.09 1541.33C6085 1548.43 6085.34 1557.45 6092.97 1564.35C6105.39 1575.58 6120.74 1569.3 6120.74 1552.98C6120.74 1548.13 6118.91 1542.32 6116.66 1540.07C6110.94 1534.36 6098.43 1535 6092.09 1541.33Z" fill="#047FAB"/>
<path fill-rule="evenodd" clip-rule="evenodd" d="M5316.99 63.9343C5286.85 68.3782 5267.91 79.3587 5258.35 97.929C5247.68 118.657 5243.01 164.24 5247.48 204.024C5252.17 245.741 5260.9 261.773 5286.4 275.431C5299.72 282.566 5303.57 282.735 5474.09 283.71L5648.19 284.703L5649.12 698.196L5650.04 1111.69L5657.7 1130.6C5666.84 1153.17 5678.14 1164.75 5701.02 1174.98C5715.43 1181.42 5725.65 1182.81 5768.24 1184.08C5859.21 1186.79 5890.16 1174.2 5909.11 1126.74C5914.73 1112.68 5915.19 1084.53 5916.06 698.196L5916.98 284.706L6089.38 283.71L6261.78 282.715L6279.76 274.595C6304.82 263.272 6313.7 247.389 6318.66 205.057C6322.95 168.456 6318.57 118.772 6309.53 101.296C6301.48 85.7254 6287.46 74.2489 6268.58 67.7598C6252.87 62.3613 6216.99 61.8823 5794.48 61.4236C5543.08 61.1518 5328.2 62.2832 5316.99 63.9343ZM6480.98 67.2876C6472.57 68.915 6457.28 74.48 6447 79.6542C6430.22 88.0968 6427.09 91.4875 6416.41 112.762L6404.52 136.466V622.376C6404.52 1174.11 6402.28 1130.95 6432.22 1157.3C6457.32 1179.38 6473.18 1183.07 6542.16 1182.83C6589.76 1182.66 6604.64 1181.46 6616.69 1176.82C6640.08 1167.8 6654.27 1155.01 6664.07 1134.13L6673 1115.08V622.458V129.831L6664.5 112.844C6647.24 78.3292 6607.83 63.2888 6536.39 63.9547C6514.33 64.1586 6489.39 65.6568 6480.98 67.2876Z" fill="#39446C"/>
<path fill-rule="evenodd" clip-rule="evenodd" d="M5016.22 2.55374C4979.86 10.1164 4961.11 23.1829 4948.7 49.6183L4939.75 68.6778V510.343C4939.75 976.779 4939.67 973.929 4955.49 1036.63C4982.29 1142.9 5041.11 1177.59 5209.94 1186.69C5257.14 1189.23 5293.93 1185.09 5317.78 1174.54C5329.97 1169.15 5333.96 1164.88 5340.73 1150.04C5351.28 1126.9 5356.01 1096.74 5356.05 1052.51C5356.09 987.807 5346.55 957.764 5320.02 939.122C5307.49 930.323 5302.35 929.103 5268.24 926.854C5226.91 924.126 5216.95 919.4 5211.47 899.929C5210.07 894.939 5208 705.865 5206.88 479.766L5204.84 68.6778L5195.79 49.3906C5186.02 28.5542 5172.56 17.2952 5145.36 7.21841C5127.37 0.549264 5040.88 -2.57297 5016.22 2.55374ZM1774.03 360.71C1771.23 361.386 1757.46 363.788 1743.44 366.041C1659.29 379.569 1572.75 427.15 1506.17 496.502C1440.6 564.8 1406.24 641.701 1396.43 742.129C1384.05 868.904 1427.5 986.146 1520.79 1077.71C1583.06 1138.82 1669.1 1182.04 1754.99 1195.37C1768.86 1197.52 1801.91 1198.39 1833.42 1197.45C1892.88 1195.67 1925.57 1189.1 1980.23 1167.99C2095.07 1123.63 2191.41 1014.87 2224.13 892.645C2250.95 792.455 2240.39 681.556 2195.48 591.881C2139.05 479.175 2028.79 394.654 1902.62 367.39C1880.11 362.525 1786.59 357.666 1774.03 360.71ZM3529.37 364.937C3500.24 367.594 3455.8 376.41 3428.65 384.917C3346.47 410.659 3294.69 461.291 3274.03 536.119C3264.84 569.397 3265.7 649.774 3275.67 690.407C3291.33 754.176 3326.62 805.573 3375.8 836.211C3429.11 869.427 3497.1 894.657 3559.95 904.55C3641.51 917.385 3669.34 931.407 3660.31 955.131C3654.69 969.92 3631.4 978.063 3589.06 980.054C3540.81 982.324 3521.59 977.133 3454.6 943.736C3377.35 905.223 3351.34 899.172 3321.43 912.744C3306.01 919.747 3293.16 935.392 3268.25 977.489C3236.97 1030.36 3231.22 1067.69 3250.01 1095.92C3269.33 1124.93 3371.64 1172.53 3452.9 1190.3C3492.98 1199.07 3629.89 1199.36 3675.5 1190.77C3790.52 1169.12 3849.99 1133.42 3883.7 1065.82C3904.48 1024.12 3908.86 1004.33 3910.71 943.515C3912.68 878.729 3907.98 852.644 3886.51 809.317C3864.46 764.79 3844.56 744.219 3802.86 722.801C3784.09 713.166 3750.82 699.441 3728.92 692.299C3691.49 680.092 3675.61 676.617 3595.84 663.17C3538.89 653.568 3509.14 634.04 3511.34 607.69C3512.27 596.556 3514.12 594.402 3529.37 586.785C3545.28 578.828 3549.58 578.302 3597.34 578.455C3653.1 578.635 3661.21 580.503 3728.18 608.549C3759.94 621.85 3783.03 624.204 3799.28 615.806C3822.98 603.552 3858.86 551.622 3871.35 511.481C3883.77 471.589 3878.09 451.289 3848.09 428.414C3820.33 407.248 3731.03 376.981 3669.33 367.821C3637.05 363.031 3566.25 361.573 3529.37 364.937ZM2429.94 379.631C2381.46 385.185 2360.53 396.835 2346.04 426.342L2336.48 445.792V778.74V1111.69L2344.68 1131.6C2359.1 1166.65 2387.3 1180.33 2452.03 1183.66C2518.44 1187.09 2564.89 1175.04 2583.32 1149.61C2603.66 1121.54 2603.96 1118.52 2606.26 919.733L2608.37 737.971L2617.86 718.639C2630.04 693.859 2658.26 667.855 2683.99 657.703C2711.92 646.689 2766.41 646.651 2794.22 657.628C2819.88 667.753 2845 691.705 2857.11 717.586L2866.65 737.971L2868.47 918.034C2870.12 1081.74 2870.87 1100.09 2876.74 1119.95C2890.66 1167.08 2923.92 1183.09 3007.69 1182.96C3083.05 1182.84 3109.94 1172.26 3128.34 1135.47L3138.54 1115.08L3139.53 924.829C3140.34 768.038 3139.61 728.832 3135.38 701.938C3122.22 618.358 3085.76 544.885 3026.06 481.618C2996.09 449.866 2964.29 426.807 2925.68 408.845C2886.1 390.434 2862.59 384.017 2817.93 379.437C2741.44 371.589 2683.02 392.021 2626.78 446.298C2614.48 458.172 2603.39 466.863 2602.14 465.616C2600.89 464.366 2599.84 458.631 2599.8 452.869C2599.71 441.178 2588.97 415.334 2580.14 405.573C2572.51 397.131 2554.14 388.182 2535.3 383.718C2512.75 378.374 2459.08 376.294 2429.94 379.631ZM4091.82 379.998C4064.86 384.411 4038.68 398.17 4029.02 413C4010.06 442.103 4009.69 447.256 4011.15 657.231C4012.64 869.111 4013.05 873.844 4035.78 936.72C4062.73 1011.29 4118.19 1085.59 4177.05 1125.96C4220.97 1156.09 4278.52 1176.14 4335.22 1181.06C4414.64 1187.96 4468.16 1169.36 4525.16 1115.08L4550.14 1091.3L4551.92 1107.44C4554.33 1129.29 4567.33 1154.2 4581.23 1163.59C4603.28 1178.48 4626.39 1182.95 4681.47 1182.95C4756.56 1182.95 4784.51 1172.56 4803.32 1137.66C4818.39 1109.7 4819.69 1076.16 4818.34 750.861C4817.14 459.888 4817.12 459.341 4809.55 436.65C4795.46 394.44 4766.55 379.597 4693.36 377.004C4645.49 375.306 4610.81 380.796 4586.95 393.842C4575.56 400.07 4570.33 406.365 4560.82 425.316L4548.92 449.006L4547.22 632.559L4545.52 816.112L4535.67 837.454C4523.05 864.776 4494.1 892.299 4466.63 903.113C4440.09 913.556 4387.28 914.392 4362 904.771C4337.57 895.465 4317.86 881.013 4305.89 863.618C4283.72 831.4 4284.34 837.42 4282.12 636.048C4279.92 436.558 4280.04 437.713 4260 411.461C4249.8 398.082 4222.92 384.873 4195.7 379.858C4172.2 375.53 4118.68 375.601 4091.82 379.998ZM1853.75 636.153C1900.11 648.224 1939.52 680.374 1954.62 718.446C1961.12 734.845 1962.39 744.501 1962.5 778.74C1962.64 817.62 1962.15 820.562 1951.88 842.234C1937.9 871.731 1915.79 892.717 1880.02 910.451C1854.85 922.923 1848.53 924.608 1822.24 925.842C1788.03 927.449 1761.23 920.198 1731.93 901.407C1685.38 871.551 1666.18 830.727 1669.44 768.493C1670.81 742.279 1672.91 733.109 1681.98 713.706C1710.37 652.984 1786.46 618.633 1853.75 636.153Z" fill="#39446C"/>
<path d="M516.435 1243.16C514.891 1228.9 516.435 902.587 516.435 902.587C516.435 902.587 518.647 923.37 522.367 936.151C524.31 942.824 525.601 946.526 528.299 952.932C531.31 960.084 533.215 964.039 537.196 970.702C541.312 977.591 543.905 981.33 549.059 987.483C554.663 994.175 558.108 997.763 564.876 1003.28C571.347 1008.55 575.319 1011.17 582.671 1015.12L595.523 1021.05C595.523 1021.05 609.645 1027.55 619.249 1029.93C626.457 1031.72 630.632 1032.27 638.032 1032.89H659.781C659.781 1032.89 669.447 1031.22 675.599 1029.93C675.599 1029.93 688.427 1027.55 696.359 1025C707.217 1021.5 713.046 1018.62 723.051 1013.15C732.35 1008.07 736.966 1004.21 745.789 998.342C862.41 920.786 1016.66 763.396 1016.66 763.396L1303.36 1012.16C1303.36 1012.16 1310.99 1020.27 1315.22 1025.98C1319.04 1031.14 1321.16 1034.11 1324.12 1039.8C1327.55 1046.41 1328.85 1050.45 1331.04 1057.57C1331.04 1057.57 1334.39 1067.65 1334.99 1074.35V1085.21C1334.99 1090.23 1335.45 1093.06 1334.99 1098.05L1328.07 1122.73C1328.07 1122.73 1325.09 1131.47 1322.14 1136.55C1319.24 1141.55 1316.93 1143.93 1313.24 1148.39C1310.12 1152.16 1308.14 1154.25 1304.93 1157.64L1304.34 1158.26C1296.65 1166.39 1291.71 1170.32 1283.58 1178.01C1270.5 1190.39 1263.5 1197.7 1249.97 1209.6C1240.51 1217.91 1234.94 1222.27 1225.26 1230.33C1212.19 1241.19 1204.8 1247.21 1191.64 1257.97C1175.09 1271.51 1165.95 1279.3 1149.13 1292.52C1149.13 1292.52 1115.14 1318.86 1092.79 1334.97C1083.58 1341.6 1078.4 1345.3 1069.06 1351.75C1055.32 1361.23 1047.42 1366.28 1033.47 1375.44C1024.61 1381.26 1019.75 1384.68 1010.73 1390.25C992.604 1401.43 981.817 1406.94 963.063 1416.51L962.291 1416.9C945.53 1425.46 936.004 1430.02 918.793 1437.63C908.826 1442.04 903.252 1444.56 893.089 1448.49C877.152 1454.66 868.017 1457.67 851.568 1462.31C840.845 1465.34 834.771 1466.83 823.888 1469.22C813.904 1471.41 808.316 1472.81 798.184 1474.16C787.824 1475.54 781.932 1475.62 771.492 1476.13C750.285 1477.18 738.329 1477.16 717.12 1476.13C710.938 1475.83 707.409 1476.15 701.302 1475.15C695.388 1474.17 692.292 1472.63 686.473 1471.2C681.473 1469.96 678.586 1469.61 673.622 1468.24C667.739 1466.61 664.471 1465.54 658.793 1463.3C652.045 1460.64 648.476 1458.64 641.987 1455.4C635.343 1452.09 631.504 1450.41 625.181 1446.52C619.983 1443.32 617.289 1441.19 612.329 1437.63C606.055 1433.14 602.431 1430.74 596.511 1425.79C590.857 1421.06 587.78 1418.27 582.671 1412.95C576.406 1406.44 573.39 1402.32 567.842 1395.18C563.438 1389.52 560.926 1386.36 556.968 1380.38C552.771 1374.03 550.628 1370.32 547.082 1363.6C542.736 1355.35 540.645 1350.53 537.196 1341.88C534.171 1334.29 532.706 1329.93 530.276 1322.13C525.213 1305.88 520.39 1279.69 520.39 1279.69L516.435 1243.16Z" fill="url(#paint0_linear_21_4)"/>
<path d="M524.344 1261.92V603.474C524.344 603.474 525.656 592.543 527.31 585.705C528.829 579.423 530.058 575.99 532.253 569.91L532.352 569.637C535.282 561.52 536.976 556.828 541.15 549.18C545.147 541.857 547.938 538.034 553.014 531.411C558.995 523.605 562.161 518.829 569.82 512.654C574.152 509.162 576.996 507.759 581.683 504.757C586.643 501.58 589.271 499.505 594.534 496.86C601.517 493.35 605.904 492.425 613.318 489.949C620.963 487.397 625.181 485.584 633.09 484.026C642.212 482.23 647.518 482.052 656.816 482.052C666.114 482.052 671.393 482.373 680.542 484.026C688.006 485.376 692.099 486.66 699.325 488.962C711.689 492.901 729.972 501.796 729.972 501.796L757.652 521.539C757.652 521.539 746.74 511.987 739.858 505.744C734.802 501.158 732.037 498.511 727.006 493.898C727.006 493.898 702.505 471.41 686.474 457.373C678.035 449.985 673.155 446.014 664.725 438.617C653.019 428.346 646.649 422.372 635.067 411.963L615.295 394.194C603.713 383.785 597.44 377.699 585.637 367.54C576.501 359.677 571.46 355.154 561.911 347.797C549.615 338.325 542.491 333.256 529.287 325.092C522.081 320.636 517.889 318.386 510.504 314.233C502.074 309.492 497.444 306.635 488.755 302.387C476.005 296.154 468.501 293.363 455.143 288.567C448.25 286.092 444.387 284.67 437.348 282.644C431.23 280.882 427.762 280.002 421.531 278.695C414.636 277.249 410.72 276.656 403.736 275.733C395.281 274.617 390.495 274.356 381.987 273.759C374.66 273.245 370.549 272.809 363.204 272.772C355.087 272.731 350.514 272.897 342.443 273.759C333.482 274.717 328.504 275.758 319.706 277.708C312.301 279.349 308.228 280.606 300.922 282.644C294.334 284.482 290.532 285.208 284.116 287.58C275.916 290.61 271.477 293.028 263.971 297.116L263.356 297.451C257.427 300.68 254.214 302.698 248.527 306.336C242.215 310.373 238.717 312.718 232.71 317.195C226.331 321.948 222.897 324.811 216.892 330.028C204.535 340.764 198.816 348.078 187.234 359.643C177.969 368.895 172.351 373.679 163.508 383.335C153.7 394.044 148.874 400.642 139.782 411.963C132.727 420.746 128.876 425.754 121.987 434.668C114.581 444.252 110.242 449.491 103.204 459.347C95.9304 469.533 92.5269 475.706 85.4092 486.001C80.845 492.602 77.887 496.033 73.5461 502.783C67.5688 512.077 66.269 513.969 59.7058 527.462L42.8997 562.013C36.3365 575.506 33.8071 580.999 29.0594 593.602C24.0726 606.84 22.2338 614.6 18.1849 628.153C14.9712 638.911 12.8875 644.875 10.2762 655.794C7.35658 668.002 6.10932 674.956 4.3446 687.384C2.71041 698.892 2.18111 705.403 1.37883 716.999C0.819379 725.084 0.390233 737.729 0.390233 737.729C0.390233 737.729 -0.487792 762.421 0.390233 778.203C0.884643 787.09 1.45653 792.054 2.36742 800.908L2.53335 802.523C3.42431 811.197 3.97265 816.536 5.3332 825.587C7.43489 839.569 8.88976 847.392 12.2533 861.126C15.5037 874.397 17.9744 881.675 22.1393 894.689C24.369 901.657 25.5641 905.585 28.0708 912.458C30.8907 920.19 32.7061 924.475 35.891 931.993L35.9796 932.202C38.9424 939.195 40.7154 943.07 43.8883 949.971C48.3552 959.687 50.9186 965.111 55.7514 974.65L56.1479 975.433C59.6457 982.338 61.7269 986.447 65.6374 993.406C70.0434 1001.25 72.7721 1005.5 77.5005 1013.15C82.787 1021.71 85.8374 1026.45 91.3408 1034.87C95.9064 1041.85 98.416 1045.8 103.204 1052.64C108.427 1060.09 111.649 1064.06 117.044 1071.39C121.297 1077.17 123.565 1080.5 127.919 1086.2C136.4 1097.31 141.641 1103.16 150.656 1113.84C160.533 1125.54 165.9 1132.27 176.36 1143.46C186.048 1153.82 202.063 1169.12 202.063 1169.12C202.063 1169.12 215.186 1182.49 223.812 1190.84C234.798 1201.47 241.066 1207.33 252.481 1217.49C263.106 1226.96 269.211 1232.1 280.162 1241.19C290.086 1249.42 295.836 1253.81 305.865 1261.92C324.425 1276.92 334.423 1285.84 353.318 1300.42C371.894 1314.75 383.012 1321.85 401.759 1335.95C409.899 1342.08 414.258 1345.79 422.519 1351.75C436.754 1362.02 445.322 1366.93 460.086 1376.43C471.612 1383.84 478.003 1388.12 489.744 1395.18C503.81 1403.65 511.727 1408.39 526.322 1415.92C536.601 1421.22 542.546 1423.83 553.014 1428.75C566.456 1435.07 573.884 1438.87 587.614 1444.54C598.68 1449.11 604.93 1451.6 616.284 1455.4C628.1 1459.36 634.964 1460.81 646.93 1464.29C656.197 1466.98 661.215 1469.2 670.656 1471.2C678.294 1472.82 682.685 1473.16 690.428 1474.16C697.362 1475.05 701.243 1475.72 708.223 1476.13C716.316 1476.61 728.983 1476.13 728.983 1476.13C728.983 1476.13 717.445 1475.54 710.2 1474.16C703.116 1472.81 699.346 1471.18 692.405 1469.22C686.995 1467.7 683.937 1466.93 678.565 1465.27C672.732 1463.48 669.463 1462.45 663.736 1460.34C657.077 1457.88 653.443 1456.24 646.93 1453.43C643.441 1451.92 641.422 1451.2 638.033 1449.48C632.78 1446.81 630.219 1444.63 625.181 1441.58C621.331 1439.25 618.996 1438.22 615.295 1435.66C610.785 1432.54 608.632 1430.29 604.42 1426.77C598.956 1422.22 595.748 1419.82 590.58 1414.93C584.434 1409.11 581.03 1405.74 575.751 1399.13C571.078 1393.28 568.947 1389.62 564.877 1383.34C561.677 1378.4 559.841 1375.64 556.968 1370.51C552.591 1362.68 550.848 1357.92 547.082 1349.78C545.126 1345.55 543.948 1343.21 542.139 1338.92C538.021 1329.14 536 1323.49 533.242 1313.25C530.685 1303.76 529.994 1298.25 528.299 1288.57C526.484 1278.21 524.344 1261.92 524.344 1261.92Z" fill="url(#paint1_linear_21_4)"/>
<path d="M282.139 273.286C262.98 289.583 233.698 315.734 233.698 315.734C233.698 315.734 242.598 310.078 248.527 306.849C256.411 302.557 260.999 300.429 269.287 296.978C275.123 294.548 278.583 293.337 284.341 291.322L285.105 291.055C293.516 288.11 298.208 286.306 306.854 284.145C318.614 281.205 325.431 280.343 337.5 279.209C347.885 278.233 353.761 278.207 364.192 278.221C374.237 278.236 379.928 277.964 389.896 279.209C399.287 280.381 404.396 282.033 413.622 284.145C428.408 287.529 436.928 288.849 451.188 294.016C462.722 298.195 468.76 301.624 479.858 306.849C493.131 313.1 500.86 316.133 513.47 323.631C527.737 332.115 534.5 338.755 548.07 348.311C555.773 353.734 567.842 362.131 567.842 362.131L1016.66 761.935C1016.66 761.935 1284.98 529.247 1295.45 520.078C1305.92 510.91 1318.18 492.437 1318.18 492.437C1318.18 492.437 1327.68 478.091 1331.04 467.758C1333.58 459.919 1334.17 455.228 1334.99 447.028C1335.91 437.821 1335.74 432.557 1334.99 423.336L1334.98 423.265C1334.51 417.494 1334.25 414.206 1333.01 408.528C1331.64 402.212 1330.66 398.656 1328.07 392.733C1324.81 385.28 1317.2 374.964 1317.2 374.964C1309.31 364.172 1302.97 359.687 1293.47 350.285C1283.96 340.883 1091.91 164.514 936.587 88.6847C923.555 82.3219 916.393 78.3989 902.975 72.89C886.377 66.0749 876.659 63.2611 859.477 58.0825C845.311 53.8127 837.377 51.2617 822.899 48.2107C807.62 44.9911 798.893 43.8405 783.356 42.2877C751.855 39.1397 733.756 38.8049 702.291 42.2877C691.817 43.447 685.96 44.3188 675.599 46.2364C659.579 49.2014 650.713 51.57 635.067 56.1081C620.998 60.1887 613.196 62.8201 599.477 67.9542C588.937 71.8986 583.129 74.3815 572.785 78.813L571.988 79.1545C557.242 85.4715 548.71 89.1266 534.23 96.5821C517.163 105.37 508.222 111.454 491.721 121.261C478.919 128.87 471.729 133.119 459.097 141.005C442.299 151.491 432.932 157.467 416.588 168.646C399.703 180.193 390.478 187.023 374.078 199.248C337.115 226.8 317.251 243.417 282.139 273.286Z" fill="url(#paint2_linear_21_4)"/>
<defs>
<linearGradient id="paint0_linear_21_4" x1="1332.55" y1="1122.51" x2="622.585" y2="616.094" gradientUnits="userSpaceOnUse">
<stop stop-color="#00BECC"/>
<stop offset="0.348958" stop-color="#047FAB"/>
<stop offset="1" stop-color="#39446C"/>
</linearGradient>
<linearGradient id="paint1_linear_21_4" x1="756.846" y1="878.275" x2="370.369" y2="90.9598" gradientUnits="userSpaceOnUse">
<stop stop-color="#00BECC"/>
<stop offset="0.348958" stop-color="#047FAB"/>
<stop offset="1" stop-color="#39446C"/>
</linearGradient>
<linearGradient id="paint2_linear_21_4" x1="1332.07" y1="403.248" x2="573.214" y2="-315.937" gradientUnits="userSpaceOnUse">
<stop stop-color="#435183"/>
<stop offset="0.682292" stop-color="#047FAB"/>
<stop offset="1" stop-color="#00BECC"/>
</linearGradient>
</defs>
</svg>
